<svg width="192" height="109" viewBox="0 0 192 109" fill="none" xmlns="http://www.w3.org/2000/svg">
<rect x="188.631" y="77.8106" width="45.1909" height="45.1909" rx="0.860779" transform="rotate(180 188.631 77.8106)" fill="white" stroke="black" stroke-width="1.72156"/>
<mask id="path-2-inside-1_2392_1745" fill="white">
<path d="M143.44 58.8735H139.566V51.9873H143.44V58.8735Z"/>
</mask>
<path d="M143.44 58.8735H139.566V51.9873H143.44V58.8735Z" fill="white"/>
<path d="M143.44 58.8735V60.1647H144.301V58.8735H143.44ZM139.566 58.8735H138.706V60.1647H139.566V58.8735ZM139.566 51.9873V50.6961H138.706V51.9873H139.566ZM143.44 51.9873H144.301V50.6961H143.44V51.9873ZM143.44 58.8735V57.5824H139.566V58.8735V60.1647H143.44V58.8735ZM139.566 58.8735H140.427V51.9873H139.566H138.706V58.8735H139.566ZM139.566 51.9873V53.2785H143.44V51.9873V50.6961H139.566V51.9873ZM143.44 51.9873H142.579V58.8735H143.44H144.301V51.9873H143.44Z" fill="black" mask="url(#path-2-inside-1_2392_1745)"/>
<mask id="path-4-inside-2_2392_1745" fill="white">
<rect x="140.774" y="63.0024" width="11.9694" height="14.9617" rx="0.430389" transform="rotate(180 140.774 63.0024)"/>
</mask>
<rect x="140.774" y="63.0024" width="11.9694" height="14.9617" rx="0.430389" transform="rotate(180 140.774 63.0024)" fill="white" stroke="black" stroke-width="2.15195" mask="url(#path-4-inside-2_2392_1745)"/>
<line x1="140.026" y1="60.973" x2="128.804" y2="60.973" stroke="black" stroke-width="0.430389"/>
<line x1="140.026" y1="58.391" x2="128.804" y2="58.391" stroke="black" stroke-width="0.430389"/>
<line x1="140.026" y1="55.8085" x2="128.804" y2="55.8085" stroke="black" stroke-width="0.430389"/>
<line x1="140.026" y1="53.2264" x2="128.804" y2="53.2264" stroke="black" stroke-width="0.430389"/>
<line x1="140.026" y1="50.6439" x2="128.804" y2="50.6439" stroke="black" stroke-width="0.430389"/>
<line x1="140.026" y1="59.682" x2="128.804" y2="59.682" stroke="black" stroke-width="0.430389"/>
<line x1="140.026" y1="57.0995" x2="128.804" y2="57.0995" stroke="black" stroke-width="0.430389"/>
<line x1="140.026" y1="54.5174" x2="128.804" y2="54.5174" stroke="black" stroke-width="0.430389"/>
<line x1="140.026" y1="51.9349" x2="128.804" y2="51.9349" stroke="black" stroke-width="0.430389"/>
<line x1="140.026" y1="49.3529" x2="128.804" y2="49.3529" stroke="black" stroke-width="0.430389"/>
<line x1="182.39" y1="78.2412" x2="182.39" y2="33.0503" stroke="black" stroke-width="1.29117"/>
<line x1="153.123" y1="78.2412" x2="153.123" y2="33.0503" stroke="black" stroke-width="1.29117"/>
<circle cx="185.188" cy="74.3675" r="0.860779" transform="rotate(180 185.188 74.3675)" fill="white" stroke="black" stroke-width="0.860779"/>
<circle cx="185.188" cy="55.4305" r="0.860779" transform="rotate(180 185.188 55.4305)" fill="white" stroke="black" stroke-width="0.860779"/>
<circle cx="185.188" cy="36.0628" r="0.860779" transform="rotate(180 185.188 36.0628)" fill="white" stroke="black" stroke-width="0.860779"/>
<circle cx="145.592" cy="75.6588" r="0.537987" transform="rotate(180 145.592 75.6588)" fill="white" stroke="black" stroke-width="0.645584"/>
<circle cx="145.592" cy="34.7715" r="0.537987" transform="rotate(180 145.592 34.7715)" fill="white" stroke="black" stroke-width="0.645584"/>
<path d="M182.175 82.9751H164.959C164.722 82.9751 164.529 82.7829 164.529 82.5454V78.2407H182.605V82.5454C182.605 82.7828 182.413 82.9749 182.175 82.9751Z" fill="white" stroke="black" stroke-width="0.860779"/>
<rect x="180.884" y="84.2664" width="15.0636" height="1.29117" transform="rotate(180 180.884 84.2664)" fill="white" stroke="black" stroke-width="0.860779"/>
<path d="M152.908 76.5195L143.44 72.8612V69.2029" stroke="black" stroke-width="1.29117"/>
<path d="M152.908 61.8862L143.44 58.2279V54.5696" stroke="black" stroke-width="1.29117"/>
<path d="M152.908 46.8228L143.44 43.1644V39.5061" stroke="black" stroke-width="1.29117"/>
<path d="M152.908 65.7598L143.44 69.4181V73.0764" stroke="black" stroke-width="1.29117"/>
<path d="M152.908 51.1265L143.44 54.7848V58.4431" stroke="black" stroke-width="1.29117"/>
<path d="M152.908 36.063L143.44 39.7213V43.3796" stroke="black" stroke-width="1.29117"/>
<circle cx="173.567" cy="80.3929" r="1.07597" transform="rotate(180 173.567 80.3929)" fill="white" stroke="black" stroke-width="0.430389"/>
<circle cx="178.732" cy="80.3929" r="1.07597" transform="rotate(180 178.732 80.3929)" fill="white" stroke="black" stroke-width="0.430389"/>
<circle cx="178.732" cy="80.3929" r="0.430389" transform="rotate(180 178.732 80.3929)" fill="black"/>
<circle cx="173.567" cy="80.3929" r="0.430389" transform="rotate(180 173.567 80.3929)" fill="black"/>
<circle cx="168.402" cy="80.3929" r="1.07597" transform="rotate(180 168.402 80.3929)" fill="white" stroke="black" stroke-width="0.430389"/>
<circle cx="168.402" cy="80.3929" r="0.430389" transform="rotate(180 168.402 80.3929)" fill="black"/>
<mask id="path-36-inside-3_2392_1745" fill="white">
<path d="M191.644 73.0762H187.77V37.7842H191.644V73.0762Z"/>
</mask>
<path d="M191.644 73.0762H187.77V37.7842H191.644V73.0762Z" fill="white"/>
<path d="M191.644 73.0762V74.3673H192.935V73.0762H191.644ZM191.644 37.7842H192.935V36.4931H191.644V37.7842ZM191.644 73.0762V71.785H187.77V73.0762V74.3673H191.644V73.0762ZM187.77 37.7842V39.0754H191.644V37.7842V36.4931H187.77V37.7842ZM191.644 37.7842H190.352V73.0762H191.644H192.935V37.7842H191.644Z" fill="black" mask="url(#path-36-inside-3_2392_1745)"/>
<rect x="128.804" y="57.7656" width="0.430389" height="4.30389" transform="rotate(180 128.804 57.7656)" fill="black"/>
<circle cx="167.98" cy="55.2282" r="11.9233" transform="rotate(180 167.98 55.2282)" fill="white" stroke="black" stroke-width="1.73596"/>
<path d="M170.725 52.5019C170.611 52.134 170.454 51.8047 170.254 51.514C170.059 51.2187 169.823 50.9666 169.546 50.7577C169.273 50.5487 168.96 50.392 168.605 50.2875C168.251 50.1785 167.865 50.124 167.447 50.124C166.698 50.124 166.03 50.3125 165.444 50.6895C164.858 51.0665 164.397 51.6207 164.061 52.352C163.729 53.0788 163.563 53.9646 163.563 55.0093C163.563 56.0631 163.729 56.9557 164.061 57.687C164.392 58.4183 164.854 58.9748 165.444 59.3563C166.035 59.7334 166.72 59.9219 167.502 59.9219C168.21 59.9219 168.824 59.7856 169.341 59.5131C169.864 59.2405 170.266 58.8544 170.547 58.3548C170.829 57.8506 170.97 57.26 170.97 56.5832L171.542 56.6718H167.754V54.6959H173.416V56.372C173.416 57.5667 173.161 58.6 172.653 59.4722C172.144 60.3443 171.444 61.0166 170.554 61.489C169.664 61.9568 168.642 62.1908 167.488 62.1908C166.203 62.1908 165.074 61.9023 164.102 61.3255C163.134 60.744 162.378 59.9196 161.833 58.8521C161.292 57.7801 161.022 56.5083 161.022 55.0366C161.022 53.9101 161.181 52.9039 161.499 52.0182C161.821 51.1324 162.271 50.3806 162.848 49.7629C163.425 49.1406 164.102 48.6682 164.878 48.3457C165.655 48.0186 166.5 47.8551 167.413 47.8551C168.185 47.8551 168.905 47.9687 169.573 48.1958C170.241 48.4183 170.834 48.7363 171.351 49.1497C171.874 49.563 172.303 50.0536 172.639 50.6214C172.975 51.1892 173.196 51.816 173.3 52.5019H170.725Z" fill="black"/>
<rect x="26.9854" y="93.6865" width="17.8656" height="11.601" transform="rotate(-90 26.9854 93.6865)" fill="white" stroke="black" stroke-width="1.62414"/>
<rect x="128.726" y="36.8419" width="14.7333" height="35.2671" fill="white" stroke="black" stroke-width="1.62414"/>
<rect x="122.346" y="75.8213" width="14.7333" height="19.7217" fill="white" stroke="black" stroke-width="1.62414"/>
<rect x="51.3475" y="75.8213" width="70.8822" height="11.137" fill="white" stroke="black" stroke-width="1.62414"/>
<mask id="path-45-inside-4_2392_1745" fill="white">
<path d="M46.011 85.7979H123.042V93.5705H46.011V85.7979Z"/>
</mask>
<path d="M46.011 85.7979H123.042V93.5705H46.011V85.7979Z" fill="white"/>
<path d="M46.011 85.7979V84.1737H44.3868V85.7979H46.011ZM123.042 85.7979H124.666V84.1737H123.042V85.7979ZM46.011 85.7979V87.422H123.042V85.7979V84.1737H46.011V85.7979ZM123.042 85.7979H121.418V93.5705H123.042H124.666V85.7979H123.042ZM46.011 93.5705H47.6351V85.7979H46.011H44.3868V93.5705H46.011Z" fill="black" mask="url(#path-45-inside-4_2392_1745)"/>
<rect x="19.2707" y="36.8999" width="109.166" height="38.8634" fill="white" stroke="black" stroke-width="1.74015"/>
<circle cx="29.3057" cy="61.552" r="4.40839" fill="white" stroke="black" stroke-width="1.62414"/>
<circle cx="49.6074" cy="60.7395" r="4.40839" fill="white" stroke="black" stroke-width="1.62414"/>
<circle cx="69.9092" cy="60.7395" r="4.40839" fill="white" stroke="black" stroke-width="1.62414"/>
<circle cx="90.2109" cy="60.7395" r="4.40839" fill="white" stroke="black" stroke-width="1.62414"/>
<circle cx="110.513" cy="60.7395" r="4.40839" fill="white" stroke="black" stroke-width="1.62414"/>
<circle cx="36.6143" cy="61.552" r="4.40839" fill="white" stroke="black" stroke-width="1.62414"/>
<circle cx="56.9163" cy="60.7395" r="4.40839" fill="white" stroke="black" stroke-width="1.62414"/>
<circle cx="77.2178" cy="60.7395" r="4.40839" fill="white" stroke="black" stroke-width="1.62414"/>
<circle cx="97.5195" cy="60.7395" r="4.40839" fill="white" stroke="black" stroke-width="1.62414"/>
<circle cx="117.822" cy="60.7395" r="4.40839" fill="white" stroke="black" stroke-width="1.62414"/>
<path d="M25.7095 63.9881L27.6816 76.2852" stroke="black" stroke-width="1.50813"/>
<path d="M46.011 63.1761L47.9832 75.4731" stroke="black" stroke-width="1.50813"/>
<path d="M66.3127 63.1761L68.2849 75.4731" stroke="black" stroke-width="1.50813"/>
<path d="M86.6147 63.1761L88.5869 75.4731" stroke="black" stroke-width="1.50813"/>
<path d="M106.917 63.1761L108.889 75.4731" stroke="black" stroke-width="1.50813"/>
<path d="M38.3542 76.2849L40.3264 63.9878" stroke="black" stroke-width="1.50813"/>
<path d="M58.6562 75.4729L60.6284 63.1758" stroke="black" stroke-width="1.50813"/>
<path d="M78.958 75.4729L80.9302 63.1758" stroke="black" stroke-width="1.50813"/>
<path d="M99.2598 75.4729L101.232 63.1758" stroke="black" stroke-width="1.50813"/>
<path d="M119.562 75.4729L121.534 63.1758" stroke="black" stroke-width="1.50813"/>
<ellipse cx="32.96" cy="64.5682" rx="5.56849" ry="6.43857" transform="rotate(-90 32.96 64.5682)" fill="white"/>
<ellipse cx="53.2618" cy="63.7562" rx="5.56849" ry="6.43857" transform="rotate(-90 53.2618 63.7562)" fill="white"/>
<ellipse cx="73.5633" cy="63.7562" rx="5.56849" ry="6.43857" transform="rotate(-90 73.5633 63.7562)" fill="white"/>
<ellipse cx="93.8653" cy="63.7562" rx="5.56849" ry="6.43857" transform="rotate(-90 93.8653 63.7562)" fill="white"/>
<ellipse cx="114.167" cy="63.7562" rx="5.56849" ry="6.43857" transform="rotate(-90 114.167 63.7562)" fill="white"/>
<line x1="25.7095" y1="64.568" x2="39.8627" y2="64.568" stroke="black" stroke-width="1.85616"/>
<line x1="46.011" y1="63.756" x2="60.1642" y2="63.756" stroke="black" stroke-width="1.85616"/>
<line x1="66.3127" y1="63.756" x2="80.466" y2="63.756" stroke="black" stroke-width="1.85616"/>
<line x1="86.6147" y1="63.756" x2="100.768" y2="63.756" stroke="black" stroke-width="1.85616"/>
<line x1="106.917" y1="63.756" x2="121.07" y2="63.756" stroke="black" stroke-width="1.85616"/>
<path d="M30.6975 68.3379V61.5518H35.2219V68.3379C35.2219 69.5872 34.2094 70.6004 32.9602 70.6006C31.7108 70.6006 30.6975 69.5873 30.6975 68.3379Z" fill="white" stroke="black" stroke-width="0.928082"/>
<path d="M50.9993 67.5259V60.7397H55.5237V67.5259C55.5237 68.7751 54.5112 69.7884 53.262 69.7886C52.0126 69.7886 50.9993 68.7753 50.9993 67.5259Z" fill="white" stroke="black" stroke-width="0.928082"/>
<path d="M71.301 67.5259V60.7397H75.8254V67.5259C75.8254 68.7751 74.8129 69.7884 73.5637 69.7886C72.3143 69.7886 71.301 68.7753 71.301 67.5259Z" fill="white" stroke="black" stroke-width="0.928082"/>
<path d="M91.603 67.5259V60.7397H96.1274V67.5259C96.1274 68.7751 95.115 69.7884 93.8657 69.7886C92.6163 69.7886 91.603 68.7753 91.603 67.5259Z" fill="white" stroke="black" stroke-width="0.928082"/>
<path d="M111.905 67.5259V60.7397H116.429V67.5259C116.429 68.7751 115.416 69.7884 114.167 69.7886C112.918 69.7886 111.905 68.7753 111.905 67.5259Z" fill="white" stroke="black" stroke-width="0.928082"/>
<path d="M30.6399 68.2803C30.6399 66.9587 31.6868 65.9023 32.9602 65.9023C34.2335 65.9025 35.2805 66.9588 35.2805 68.2803C35.2805 69.6017 34.2334 70.658 32.9602 70.6582C31.6868 70.6582 30.6399 69.6018 30.6399 68.2803Z" fill="white" stroke="black" stroke-width="0.812071"/>
<path d="M50.9417 67.4683C50.9417 66.1467 51.9886 65.0903 53.262 65.0903C54.5352 65.0905 55.5823 66.1468 55.5823 67.4683C55.5822 68.7897 54.5352 69.846 53.262 69.8462C51.9886 69.8462 50.9417 68.7898 50.9417 67.4683Z" fill="white" stroke="black" stroke-width="0.812071"/>
<path d="M71.2434 67.4683C71.2434 66.1467 72.2903 65.0903 73.5637 65.0903C74.837 65.0905 75.884 66.1468 75.884 67.4683C75.884 68.7897 74.837 69.846 73.5637 69.8462C72.2903 69.8462 71.2434 68.7898 71.2434 67.4683Z" fill="white" stroke="black" stroke-width="0.812071"/>
<path d="M91.5454 67.4683C91.5454 66.1467 92.5923 65.0903 93.8657 65.0903C95.139 65.0905 96.186 66.1468 96.186 67.4683C96.186 68.7897 95.139 69.846 93.8657 69.8462C92.5923 69.8462 91.5454 68.7898 91.5454 67.4683Z" fill="white" stroke="black" stroke-width="0.812071"/>
<path d="M111.847 67.4683C111.847 66.1467 112.894 65.0903 114.167 65.0903C115.44 65.0905 116.488 66.1468 116.488 67.4683C116.488 68.7897 115.44 69.846 114.167 69.8462C112.894 69.8462 111.847 68.7898 111.847 67.4683Z" fill="white" stroke="black" stroke-width="0.812071"/>
<circle cx="32.7857" cy="50.9948" r="2.55222" transform="rotate(-90 32.7857 50.9948)" fill="white" stroke="black" stroke-width="1.85616"/>
<circle cx="53.0877" cy="51.2267" r="2.55222" transform="rotate(-90 53.0877 51.2267)" fill="white" stroke="black" stroke-width="1.85616"/>
<circle cx="73.6214" cy="50.9948" r="2.55222" transform="rotate(-90 73.6214 50.9948)" fill="white" stroke="black" stroke-width="1.85616"/>
<circle cx="93.6912" cy="50.9948" r="2.55222" transform="rotate(-90 93.6912 50.9948)" fill="white" stroke="black" stroke-width="1.85616"/>
<circle cx="114.225" cy="50.9948" r="2.55222" transform="rotate(-90 114.225 50.9948)" fill="white" stroke="black" stroke-width="1.85616"/>
<circle cx="33.0179" cy="94.4989" r="8.12071" transform="rotate(-90 33.0179 94.4989)" fill="white" stroke="black" stroke-width="1.1601"/>
<rect x="21.1269" y="44.9043" width="1.62414" height="107.077" transform="rotate(-90 21.1269 44.9043)" fill="white" stroke="black" stroke-width="0.580051"/>
<path d="M35.8022 51.0527H39.7466L44.619 44.7882" stroke="black" stroke-width="0.696061"/>
<path d="M76.3477 51.0527H80.292L85.1644 44.7882" stroke="black" stroke-width="0.696061"/>
<path d="M56.2781 51.0527H60.2224L65.0949 44.7882" stroke="black" stroke-width="0.696061"/>
<path d="M96.8235 51.0527H100.768L105.64 44.7882" stroke="black" stroke-width="0.696061"/>
<path d="M116.951 51.0527H120.896L125.768 44.7882" stroke="black" stroke-width="0.696061"/>
<path d="M35.7441 52.3872H40.2685L46.1851 44.9626" stroke="black" stroke-width="0.696061"/>
<path d="M76.2898 52.3872H80.8142L86.7307 44.9626" stroke="black" stroke-width="0.696061"/>
<path d="M56.2202 52.3872H60.7446L66.6611 44.9626" stroke="black" stroke-width="0.696061"/>
<path d="M96.7656 52.3872H101.29L107.207 44.9626" stroke="black" stroke-width="0.696061"/>
<path d="M116.894 52.3872H121.418L127.334 44.9626" stroke="black" stroke-width="0.696061"/>
<rect x="32.2639" y="47.4566" width="2.43621" height="1.04409" transform="rotate(-90 32.2639 47.4566)" fill="white" stroke="black" stroke-width="0.580051"/>
<rect x="73.3315" y="47.5728" width="2.43621" height="1.04409" transform="rotate(-90 73.3315 47.5728)" fill="white" stroke="black" stroke-width="0.580051"/>
<rect x="52.7976" y="47.5728" width="2.43621" height="1.04409" transform="rotate(-90 52.7976 47.5728)" fill="white" stroke="black" stroke-width="0.580051"/>
<rect x="93.4014" y="47.5728" width="2.43621" height="1.04409" transform="rotate(-90 93.4014 47.5728)" fill="white" stroke="black" stroke-width="0.580051"/>
<rect x="113.703" y="47.5728" width="2.43621" height="1.04409" transform="rotate(-90 113.703 47.5728)" fill="white" stroke="black" stroke-width="0.580051"/>
<rect x="0.999083" y="93.2226" width="69.6061" height="18.9097" transform="rotate(-90 0.999083 93.2226)" fill="white" stroke="black" stroke-width="1.62414"/>
<rect x="2.97125" y="23.3842" width="3.82834" height="14.6173" transform="rotate(-90 2.97125 23.3842)" fill="white" stroke="black" stroke-width="1.62414"/>
<rect x="17.9365" y="93.8028" width="3.82834" height="14.6173" transform="rotate(90 17.9365 93.8028)" fill="white" stroke="black" stroke-width="1.62414"/>
<rect x="0.999083" y="19.5561" width="3.48031" height="18.9097" transform="rotate(-90 0.999083 19.5561)" fill="white" stroke="black" stroke-width="1.62414"/>
<rect x="20.025" y="33.8251" width="7.77268" height="12.9931" transform="rotate(-90 20.025 33.8251)" fill="white" stroke="black" stroke-width="1.62414"/>
<rect x="131.975" y="34.0572" width="7.77268" height="18.6776" fill="white" stroke="black" stroke-width="1.62414"/>
<mask id="path-116-inside-5_2392_1745" fill="white">
<path d="M33.8298 34.6372V25.2404H131.162V34.6372H33.8298Z"/>
</mask>
<path d="M33.8298 34.6372V25.2404H131.162V34.6372H33.8298Z" fill="white"/>
<path d="M33.8298 34.6372H32.2057V36.2613H33.8298V34.6372ZM33.8298 25.2404V23.6162H32.2057V25.2404H33.8298ZM33.8298 34.6372H35.454V25.2404H33.8298H32.2057V34.6372H33.8298ZM33.8298 25.2404V26.8645H131.162V25.2404V23.6162H33.8298V25.2404ZM131.162 34.6372V33.0131H33.8298V34.6372V36.2613H131.162V34.6372Z" fill="black" mask="url(#path-116-inside-5_2392_1745)"/>
<rect x="32.6699" y="34.9857" width="10.2089" height="1.74015" rx="0.870076" transform="rotate(-90 32.6699 34.9857)" fill="white" stroke="black" stroke-width="0.928082"/>
<rect x="19.9089" y="97.6309" width="3.48031" height="18.9097" transform="rotate(90 19.9089 97.6309)" fill="white" stroke="black" stroke-width="1.62414"/>
<mask id="path-120-inside-6_2392_1745" fill="white">
<path d="M131.047 25.2405C132.296 25.2405 133.533 25.4836 134.687 25.9558C135.841 26.4281 136.89 27.1202 137.773 27.9928C138.656 28.8654 139.357 29.9013 139.835 31.0413C140.313 32.1814 140.559 33.4033 140.559 34.6374L131.047 34.6374V25.2405Z"/>
</mask>
<path d="M131.047 25.2405C132.296 25.2405 133.533 25.4836 134.687 25.9558C135.841 26.4281 136.89 27.1202 137.773 27.9928C138.656 28.8654 139.357 29.9013 139.835 31.0413C140.313 32.1814 140.559 33.4033 140.559 34.6374L131.047 34.6374V25.2405Z" fill="white" stroke="black" stroke-width="2.78424" mask="url(#path-120-inside-6_2392_1745)"/>
<circle cx="33.0178" cy="94.4988" r="4.64041" transform="rotate(-90 33.0178 94.4988)" fill="white" stroke="black" stroke-width="1.1601"/>
<path d="M32.7021 100.45H33.332L33.6465 100.996L33.332 101.541H32.7021L32.3877 100.996L32.7021 100.45Z" fill="white" stroke="black" stroke-width="0.516969"/>
<path d="M26.4375 93.9531H27.0674L27.3818 94.499L27.0674 95.0439H26.4375L26.123 94.499L26.4375 93.9531Z" fill="white" stroke="black" stroke-width="0.516969"/>
<path d="M6.77734 53.397H13.7812L17.2842 59.4644L13.7822 65.5298H6.77637L3.27539 59.4644L6.77734 53.397Z" fill="white" stroke="black" stroke-width="0.928082"/>
<path d="M32.7021 87.5728H33.332L33.6465 88.1187L33.332 88.6636H32.7021L32.3877 88.1187L32.7021 87.5728Z" fill="white" stroke="black" stroke-width="0.516969"/>
<path d="M39.0828 93.9531H39.7126L40.0271 94.499L39.7126 95.0439H39.0828L38.7683 94.499L39.0828 93.9531Z" fill="white" stroke="black" stroke-width="0.516969"/>
<path d="M56.8325 80.4429H57.9263L58.4731 81.3901L57.9263 82.3364H56.8325L56.2856 81.3901L56.8325 80.4429Z" fill="white" stroke="black" stroke-width="0.516969"/>
<path d="M95 80.4429H96.0938L96.6406 81.3901L96.0938 82.3364H95L94.4531 81.3901L95 80.4429Z" fill="white" stroke="black" stroke-width="0.516969"/>
<path d="M68.2017 80.4429H69.2954L69.8423 81.3901L69.2954 82.3364H68.2017L67.6548 81.3901L68.2017 80.4429Z" fill="white" stroke="black" stroke-width="0.516969"/>
<path d="M107.761 80.4429H108.855L109.402 81.3901L108.855 82.3364H107.761L107.214 81.3901L107.761 80.4429Z" fill="white" stroke="black" stroke-width="0.516969"/>
<path d="M81.6589 80.4429H82.7527L83.2996 81.3901L82.7527 82.3364H81.6589L81.1121 81.3901L81.6589 80.4429Z" fill="white" stroke="black" stroke-width="0.516969"/>
<circle cx="135.919" cy="55.0554" r="4.64041" transform="rotate(-90 135.919 55.0554)" fill="white" stroke="black" stroke-width="1.1601"/>
<circle cx="10.28" cy="59.4636" r="4.64041" transform="rotate(-90 10.28 59.4636)" fill="white" stroke="black" stroke-width="1.1601"/>
<circle cx="135.919" cy="55.0553" r="2.43621" transform="rotate(-90 135.919 55.0553)" fill="white" stroke="black" stroke-width="0.928082"/>
<circle cx="10.2801" cy="59.4635" r="2.43621" transform="rotate(-90 10.2801 59.4635)" fill="white" stroke="black" stroke-width="0.928082"/>
<path d="M46.7651 92.9904L52.1016 100.705" stroke="black" stroke-width="1.85616"/>
<path d="M116.894 101.111L122.23 93.1064" stroke="black" stroke-width="1.85616"/>
<line x1="51.3525" y1="100.299" x2="117.826" y2="100.647" stroke="black" stroke-width="1.85616"/>
<circle cx="68.517" cy="97.399" r="10.7889" transform="rotate(-90 68.517 97.399)" fill="white" stroke="black" stroke-width="1.62414"/>
</svg>
