<svg width="323" height="585" viewBox="0 0 323 585" fill="none" xmlns="http://www.w3.org/2000/svg">
<mask id="path-1-inside-1_555_2252" fill="white">
<rect width="323" height="549" rx="11.5862"/>
</mask>
<rect width="323" height="549" rx="11.5862" fill="white" stroke="black" stroke-width="24.9549" mask="url(#path-1-inside-1_555_2252)"/>
<rect x="25.9019" y="22.9019" width="271.196" height="503.196" rx="6.68435" fill="white" stroke="black" stroke-width="9.80371"/>
<path d="M116.096 21.5654C115.409 25.1467 113.698 28.4605 111.153 31.0645C107.783 34.5129 103.23 36.4346 98.5 36.4346C93.7701 36.4346 89.2168 34.5129 85.8467 31.0645C83.302 28.4605 81.5912 25.1467 80.9043 21.5654H116.096Z" fill="white" stroke="black" stroke-width="7.12997"/>
<path d="M206.904 527.435C207.591 523.853 209.302 520.54 211.847 517.936C215.217 514.487 219.77 512.565 224.5 512.565C229.23 512.565 233.783 514.487 237.153 517.936C239.698 520.54 241.409 523.853 242.096 527.435H206.904Z" fill="white" stroke="black" stroke-width="7.12997"/>
<path d="M24.5654 255.967C27.8008 256.702 30.8241 258.431 33.2432 261.022C36.5426 264.558 38.4346 269.402 38.4346 274.5C38.4346 279.598 36.5426 284.442 33.2432 287.978C30.8241 290.569 27.8008 292.298 24.5654 293.033V255.967Z" fill="white" stroke="black" stroke-width="7.12997"/>
<path d="M298.435 293.033C295.199 292.298 292.176 290.569 289.757 287.978C286.457 284.442 284.565 279.598 284.565 274.5C284.565 269.402 286.457 264.558 289.757 261.022C292.176 258.431 295.199 256.702 298.435 255.967V293.033Z" fill="white" stroke="black" stroke-width="7.12997"/>
<path d="M24.5654 403.956C27.8203 404.676 30.8528 406.372 33.2705 408.905C36.5597 412.351 38.4346 417.059 38.4346 422C38.4346 426.941 36.5597 431.649 33.2705 435.095C30.8528 437.628 27.8203 439.324 24.5654 440.044V403.956Z" fill="white" stroke="black" stroke-width="7.12997"/>
<path d="M298.435 145.033C295.199 144.298 292.176 142.569 289.757 139.978C286.457 136.442 284.565 131.598 284.565 126.5C284.565 121.402 286.457 116.558 289.757 113.022C292.176 110.431 295.199 108.702 298.435 107.967V145.033Z" fill="white" stroke="black" stroke-width="7.12997"/>
<path d="M242.096 21.5654C241.409 25.1467 239.698 28.4605 237.153 31.0645C233.783 34.5129 229.23 36.4346 224.5 36.4346C219.77 36.4346 215.217 34.5129 211.847 31.0645C209.302 28.4605 207.591 25.1467 206.904 21.5654H242.096Z" fill="white" stroke="black" stroke-width="7.12997"/>
<path d="M80.9043 527.435C81.5912 523.853 83.302 520.54 85.8467 517.936C89.2168 514.487 93.7701 512.565 98.5 512.565C103.23 512.565 107.783 514.487 111.153 517.936C113.698 520.54 115.409 523.853 116.096 527.435H80.9043Z" fill="white" stroke="black" stroke-width="7.12997"/>
<path d="M83 531C83 527.022 84.6331 523.206 87.5399 520.393C90.4467 517.58 94.3892 516 98.5 516C102.611 516 106.553 517.58 109.46 520.393C112.367 523.206 114 527.022 114 531L98.5 531H83Z" fill="white"/>
<path d="M209 531C209 527.022 210.633 523.206 213.54 520.393C216.447 517.58 220.389 516 224.5 516C228.611 516 232.553 517.58 235.46 520.393C238.367 523.206 240 527.022 240 531L224.5 531H209Z" fill="white"/>
<path d="M24.5654 107.967C27.8008 108.702 30.8241 110.431 33.2432 113.022C36.5426 116.558 38.4346 121.402 38.4346 126.5C38.4346 131.598 36.5426 136.442 33.2432 139.978C30.8241 142.569 27.8008 144.298 24.5654 145.033V107.967Z" fill="white" stroke="black" stroke-width="7.12997"/>
<path d="M298.435 440.044C295.18 439.324 292.147 437.628 289.729 435.095C286.44 431.649 284.565 426.941 284.565 422C284.565 417.059 286.44 412.351 289.729 408.905C292.147 406.372 295.18 404.676 298.435 403.956V440.044Z" fill="white" stroke="black" stroke-width="7.12997"/>
<path d="M302 438C298.287 438 294.726 436.314 292.101 433.314C289.475 430.313 288 426.243 288 422C288 417.757 289.475 413.687 292.101 410.686C294.726 407.686 298.287 406 302 406L302 422V438Z" fill="white"/>
<path d="M302 290C298.287 290 294.726 288.314 292.101 285.314C289.475 282.313 288 278.243 288 274C288 269.757 289.475 265.687 292.101 262.686C294.726 259.686 298.287 258 302 258L302 274V290Z" fill="white"/>
<path d="M302 142C298.287 142 294.726 140.314 292.101 137.314C289.475 134.313 288 130.243 288 126C288 121.757 289.475 117.687 292.101 114.686C294.726 111.686 298.287 110 302 110L302 126V142Z" fill="white"/>
<path d="M240 18C240 21.9782 238.367 25.7936 235.46 28.6066C232.553 31.4196 228.611 33 224.5 33C220.389 33 216.447 31.4196 213.54 28.6066C210.633 25.7936 209 21.9782 209 18L224.5 18H240Z" fill="white"/>
<path d="M114 18C114 21.9782 112.367 25.7936 109.46 28.6066C106.553 31.4196 102.611 33 98.5 33C94.3891 33 90.4466 31.4196 87.5398 28.6066C84.633 25.7936 83 21.9782 83 18L98.5 18H114Z" fill="white"/>
<path d="M21 110C24.713 110 28.274 111.686 30.8995 114.686C33.525 117.687 35 121.757 35 126C35 130.243 33.525 134.313 30.8995 137.314C28.274 140.314 24.713 142 21 142L21 126V110Z" fill="white"/>
<path d="M21 258C24.713 258 28.274 259.686 30.8995 262.686C33.525 265.687 35 269.757 35 274C35 278.243 33.525 282.313 30.8995 285.314C28.274 288.314 24.713 290 21 290L21 274V258Z" fill="white"/>
<path d="M21 406C24.713 406 28.274 407.686 30.8995 410.686C33.525 413.687 35 417.757 35 422C35 426.243 33.525 430.313 30.8995 433.314C28.274 436.314 24.713 438 21 438L21 422V406Z" fill="white"/>
<path d="M103.633 523.536V529.463L98.5 532.427L93.3672 529.463V523.536L98.5 520.572L103.633 523.536Z" fill="white" stroke="black" stroke-width="4.45623"/>
<path d="M229.633 523.536V529.463L224.5 532.427L219.367 529.463V523.536L224.5 520.572L229.633 523.536Z" fill="white" stroke="black" stroke-width="4.45623"/>
<path d="M305.7 418.709V425.29L301 428.343L296.3 425.29V418.709L301 415.656L305.7 418.709Z" fill="white" stroke="black" stroke-width="4.45623"/>
<path d="M305.7 270.709V277.29L301 280.343L296.3 277.29V270.709L301 267.656L305.7 270.709Z" fill="white" stroke="black" stroke-width="4.45623"/>
<path d="M305.7 122.709V129.29L301 132.343L296.3 129.29V122.709L301 119.656L305.7 122.709Z" fill="white" stroke="black" stroke-width="4.45623"/>
<path d="M229.633 18.749V25.25L224.5 28.3877L219.367 25.25V18.749L224.5 15.6113L229.633 18.749Z" fill="white" stroke="black" stroke-width="4.45623"/>
<path d="M103.633 18.749V25.25L98.5 28.3877L93.3672 25.25V18.749L98.5 15.6113L103.633 18.749Z" fill="white" stroke="black" stroke-width="4.45623"/>
<path d="M27.6328 122.749V129.25L22.5 132.388L17.3672 129.25V122.749L22.5 119.611L27.6328 122.749Z" fill="white" stroke="black" stroke-width="4.45623"/>
<path d="M27.6328 270.749V277.25L22.5 280.388L17.3672 277.25V270.749L22.5 267.611L27.6328 270.749Z" fill="white" stroke="black" stroke-width="4.45623"/>
<path d="M27.6328 418.749V425.25L22.5 428.388L17.3672 425.25V418.749L22.5 415.611L27.6328 418.749Z" fill="white" stroke="black" stroke-width="4.45623"/>
<rect x="17.565" y="545.565" width="29.87" height="16.87" fill="white" stroke="black" stroke-width="7.12997"/>
<rect x="273.565" y="545.565" width="28.87" height="16.87" fill="white" stroke="black" stroke-width="7.12997"/>
<mask id="path-35-inside-2_555_2252" fill="white">
<path d="M218 543H259V563.435C259 565.404 257.404 567 255.435 567H221.565C219.596 567 218 565.404 218 563.435V543Z"/>
</mask>
<path d="M218 543H259V563.435C259 565.404 257.404 567 255.435 567H221.565C219.596 567 218 565.404 218 563.435V543Z" fill="white" stroke="black" stroke-width="14.2599" mask="url(#path-35-inside-2_555_2252)"/>
<rect x="73.565" y="543.565" width="36.87" height="14.87" fill="white" stroke="black" stroke-width="7.12997"/>
<rect x="123.565" y="543.565" width="36.87" height="14.87" fill="white" stroke="black" stroke-width="7.12997"/>
<rect x="173.565" y="543.565" width="36.87" height="14.87" fill="white" stroke="black" stroke-width="7.12997"/>
<rect x="76.2281" y="560.228" width="32.5438" height="7.54377" fill="white" stroke="black" stroke-width="4.45623"/>
<rect x="126.228" y="560.228" width="31.5438" height="7.54377" fill="white" stroke="black" stroke-width="4.45623"/>
<rect x="175.228" y="560.228" width="32.5438" height="7.54377" fill="white" stroke="black" stroke-width="4.45623"/>
<path d="M76 569L79 579" stroke="black" stroke-width="4.45623"/>
<path d="M126 569L129 579" stroke="black" stroke-width="4.45623"/>
<path d="M176 569L178 579" stroke="black" stroke-width="4.45623"/>
<path d="M108 569L105 579" stroke="black" stroke-width="4.45623"/>
<path d="M157 569L155 579" stroke="black" stroke-width="4.45623"/>
<path d="M207 569L205 579" stroke="black" stroke-width="4.45623"/>
<rect x="10.75" y="561.75" width="43.5" height="5.5" rx="2.75" fill="white" stroke="black" stroke-width="5.5"/>
<rect x="265.75" y="561.75" width="44.5" height="5.5" rx="2.75" fill="white" stroke="black" stroke-width="5.5"/>
<path d="M106.663 579.337V581.435C106.663 582.665 105.665 583.663 104.435 583.663H79.5654C78.3349 583.663 77.3369 582.665 77.3369 581.435V579.337H106.663Z" fill="white" stroke="black" stroke-width="2.67374"/>
<path d="M155.663 579.337V581.435C155.663 582.665 154.665 583.663 153.435 583.663H129.565C128.335 583.663 127.337 582.665 127.337 581.435V579.337H155.663Z" fill="white" stroke="black" stroke-width="2.67374"/>
<path d="M205.663 579.337V581.435C205.663 582.665 204.665 583.663 203.435 583.663H179.565C178.335 583.663 177.337 582.665 177.337 581.435V579.337H205.663Z" fill="white" stroke="black" stroke-width="2.67374"/>
<line x1="76" y1="577.772" x2="108" y2="577.772" stroke="black" stroke-width="4.45623"/>
<line x1="126" y1="577.772" x2="157" y2="577.772" stroke="black" stroke-width="4.45623"/>
<line x1="176" y1="577.772" x2="207" y2="577.772" stroke="black" stroke-width="4.45623"/>
<line x1="84.7825" y1="543" x2="84.7825" y2="557" stroke="black" stroke-width="3.56499"/>
<line x1="134.782" y1="543" x2="134.782" y2="557" stroke="black" stroke-width="3.56499"/>
<line x1="184.782" y1="543" x2="184.782" y2="557" stroke="black" stroke-width="3.56499"/>
<line x1="97.7825" y1="543" x2="97.7825" y2="557" stroke="black" stroke-width="3.56499"/>
<line x1="146.782" y1="543" x2="146.782" y2="557" stroke="black" stroke-width="3.56499"/>
<line x1="196.782" y1="543" x2="196.782" y2="557" stroke="black" stroke-width="3.56499"/>
<mask id="path-62-inside-3_555_2252" fill="white">
<path d="M78 99.3963C78 86.4749 88.4749 76 101.396 76H218.378C231.299 76 241.774 86.4749 241.774 99.3963V177.384H78V99.3963Z"/>
</mask>
<path d="M78 99.3963C78 86.4749 88.4749 76 101.396 76H218.378C231.299 76 241.774 86.4749 241.774 99.3963V177.384H78V99.3963Z" fill="white"/>
<path d="M66.3019 87.6981C66.3019 68.316 82.0142 52.6037 101.396 52.6037H218.378C237.76 52.6037 253.472 68.316 253.472 87.6981L230.076 99.3963C230.076 99.3963 224.838 99.3963 218.378 99.3963H101.396C94.9356 99.3963 89.6981 99.3963 89.6981 99.3963L66.3019 87.6981ZM253.472 192.981H66.3019L89.6981 161.786H230.076L253.472 192.981ZM66.3019 192.981V87.6981C66.3019 68.316 82.0142 52.6037 101.396 52.6037L101.396 99.3963C94.9356 99.3963 89.6981 99.3963 89.6981 99.3963V161.786L66.3019 192.981ZM218.378 52.6037C237.76 52.6037 253.472 68.316 253.472 87.6981V192.981L230.076 161.786V99.3963C230.076 99.3963 224.838 99.3963 218.378 99.3963V52.6037Z" fill="black" mask="url(#path-62-inside-3_555_2252)"/>
<circle cx="159.929" cy="289.929" r="75.7843" fill="white" stroke="black" stroke-width="12.2893"/>
<circle cx="159.929" cy="395.071" r="75.7843" fill="white" stroke="black" stroke-width="12.2893"/>
<path d="M105.31 342.5C127.84 367.079 175.632 374.589 213.866 342.5" stroke="black" stroke-width="9.89017"/>
</svg>
