<svg width="102" height="87" viewBox="0 0 102 87" fill="none" xmlns="http://www.w3.org/2000/svg">
<path d="M12.5601 14.9731C12.6122 14.9733 12.8642 15.0075 13.2729 15.5454C13.6687 16.0662 14.0761 16.894 14.439 18.0229C15.1605 20.2678 15.6255 23.4429 15.6255 27.0024C15.6255 30.5617 15.1604 33.7362 14.439 35.981C14.076 37.11 13.6688 37.9386 13.2729 38.4595C12.8643 38.9971 12.6122 39.0316 12.5601 39.0317C12.5089 39.0317 12.256 38.9987 11.8462 38.4595C11.4504 37.9386 11.0431 37.11 10.6802 35.981C9.95871 33.7362 9.49367 30.5617 9.49365 27.0024C9.49365 23.4429 9.95863 20.2678 10.6802 18.0229C11.043 16.894 11.4504 16.0663 11.8462 15.5454C12.2561 15.0061 12.5089 14.9731 12.5601 14.9731Z" fill="#F8F9FA" stroke="black" stroke-width="2.3587"/>
<path d="M12.5601 40.4468C12.6122 40.447 12.8642 40.4812 13.2729 41.019C13.6687 41.5399 14.0761 42.3676 14.439 43.4966C15.1605 45.7414 15.6255 48.9166 15.6255 52.4761C15.6255 56.0353 15.1604 59.2098 14.439 61.4546C14.076 62.5837 13.6688 63.4123 13.2729 63.9331C12.8643 64.4708 12.6122 64.5052 12.5601 64.5054C12.5089 64.5054 12.256 64.4723 11.8462 63.9331C11.4504 63.4123 11.0431 62.5837 10.6802 61.4546C9.95871 59.2098 9.49367 56.0353 9.49365 52.4761C9.49365 48.9166 9.95863 45.7414 10.6802 43.4966C11.043 42.3677 11.4504 41.5399 11.8462 41.019C12.2561 40.4797 12.5089 40.4468 12.5601 40.4468Z" fill="#F8F9FA" stroke="black" stroke-width="2.3587"/>
<path d="M23.4102 37.3806L58.4855 36.4371C54.9895 26.3531 56.2312 19.2212 68.2256 2H31.4298V8.54305C31.4298 21.1055 17.7493 27.7099 23.4102 37.3806Z" fill="#F8F9FA" stroke="black" stroke-width="2.3587"/>
<path d="M56.4327 60.9678H45.6392C44.344 57.9015 42.8773 55.3222 42.2805 48.7555L56.4327 45.8721V50.9605V60.9678Z" fill="white" stroke="black" stroke-width="2.3587"/>
<path d="M33.3174 29.832C40.86 29.8321 47.6219 31.1301 52.4453 33.1738C54.8598 34.1969 56.7228 35.3798 57.9609 36.6201C59.1933 37.8548 59.7344 39.067 59.7344 40.2109C59.7342 41.3548 59.1933 42.5672 57.9609 43.8018C56.7228 45.042 54.8597 46.224 52.4453 47.2471C47.6219 49.2908 40.8601 50.5888 33.3174 50.5889C25.7744 50.5889 19.012 49.2909 14.1885 47.2471C11.774 46.224 9.91095 45.0421 8.67285 43.8018C7.44053 42.5672 6.89955 41.3548 6.89941 40.2109C6.89941 39.0671 7.44064 37.8547 8.67285 36.6201C9.91095 35.3798 11.774 34.1969 14.1885 33.1738C19.012 31.13 25.7744 29.832 33.3174 29.832Z" fill="#F8F9FA" stroke="black" stroke-width="2.83045"/>
<mask id="path-6-inside-1_2391_37" fill="white">
<path d="M20.5798 31.7192H22.4668V48.7019H20.5798V31.7192Z"/>
</mask>
<path d="M20.5798 31.7192H22.4668V48.7019H20.5798V31.7192Z" fill="white"/>
<path d="M22.4668 31.7192H20.5798V48.7019H22.4668H24.3538V31.7192H22.4668Z" fill="black" mask="url(#path-6-inside-1_2391_37)"/>
<mask id="path-8-inside-2_2391_37" fill="white">
<path d="M17.7493 32.1919H19.6362V48.2311H17.7493V32.1919Z"/>
</mask>
<path d="M17.7493 32.1919H19.6362V48.2311H17.7493V32.1919Z" fill="white"/>
<path d="M19.6362 32.1919H17.7493V48.2311H19.6362H21.5232V32.1919H19.6362Z" fill="black" mask="url(#path-8-inside-2_2391_37)"/>
<path d="M48.2494 32.1919C46.6278 38.6237 46.5328 41.9837 48.2494 47.7593" stroke="black" stroke-width="1.41522"/>
<path d="M36.3831 38.0889C38.1959 38.0889 39.8035 38.4194 40.9309 38.9248C41.4952 39.1778 41.9083 39.4608 42.1711 39.7393C42.4304 40.0141 42.5159 40.252 42.5159 40.4473C42.5158 40.6425 42.4304 40.8805 42.1711 41.1553C41.9083 41.4337 41.4952 41.7168 40.9309 41.9697C39.8035 42.4751 38.1959 42.8057 36.3831 42.8057C34.5704 42.8056 32.9635 42.4751 31.8362 41.9697C31.2717 41.7167 30.8578 41.4338 30.595 41.1553C30.3358 40.8806 30.2512 40.6424 30.2512 40.4473C30.2512 40.2521 30.3359 40.014 30.595 39.7393C30.8578 39.4607 31.2717 39.1779 31.8362 38.9248C32.9635 38.4195 34.5704 38.0889 36.3831 38.0889Z" fill="white" stroke="black" stroke-width="1.41522"/>
<line x1="20.1087" y1="26.5303" x2="20.1087" y2="51.0608" stroke="#F8F9FA" stroke-width="0.943482"/>
<path d="M38.5776 2L38.5776 30.7922" stroke="black" stroke-width="1.88696"/>
<path d="M50.4587 34.6726C50.8185 34.7826 51.1219 34.9292 51.3213 35.0711C51.4218 35.1426 51.487 35.2068 51.5218 35.257C51.5363 35.2778 51.5414 35.2923 51.5442 35.3006C51.5373 35.3059 51.5249 35.315 51.5013 35.3242C51.4444 35.3463 51.3543 35.3631 51.2311 35.3662C50.9865 35.3723 50.6529 35.3242 50.2931 35.2142C49.9336 35.1043 49.6309 34.9578 49.4315 34.816C49.331 34.7445 49.2649 34.68 49.2301 34.6298C49.2153 34.6084 49.2094 34.5941 49.2067 34.5859C49.2135 34.5807 49.2264 34.572 49.2506 34.5626C49.3076 34.5405 49.3984 34.524 49.5217 34.5209C49.7663 34.5148 50.0993 34.5627 50.4587 34.6726Z" fill="white" stroke="black" stroke-width="0.377393"/>
<path d="M49.9533 36.0803C50.3238 36.1456 50.6429 36.2542 50.8581 36.3707C50.9665 36.4294 51.0391 36.4852 51.0797 36.5307C51.0966 36.5497 51.1035 36.5634 51.1073 36.5713C51.101 36.5774 51.0899 36.588 51.0675 36.6C51.0137 36.6289 50.9264 36.6565 50.8045 36.6746C50.5624 36.7105 50.2254 36.7034 49.855 36.6381C49.4848 36.5728 49.1664 36.4643 48.9512 36.3478C48.8427 36.2891 48.7693 36.2331 48.7286 36.1876C48.7113 36.1681 48.7037 36.1546 48.7001 36.1468C48.7062 36.1408 48.718 36.1306 48.7408 36.1183C48.7946 36.0894 48.8828 36.062 49.0048 36.0439C49.2468 36.0081 49.5831 36.015 49.9533 36.0803Z" fill="white" stroke="black" stroke-width="0.377393"/>
<path d="M49.4403 37.8091C49.8151 37.8419 50.1424 37.9223 50.3669 38.0196C50.48 38.0686 50.5572 38.1179 50.6017 38.1597C50.6202 38.1771 50.6282 38.1902 50.6327 38.1977C50.627 38.2044 50.6168 38.2158 50.5956 38.2298C50.5445 38.2632 50.4599 38.2984 50.34 38.327C50.102 38.3839 49.7657 38.4062 49.391 38.3734C49.0165 38.3406 48.6898 38.2603 48.4654 38.163C48.3521 38.1139 48.2741 38.0646 48.2296 38.0228C48.2107 38.0049 48.202 37.9921 48.1977 37.9847C48.2032 37.9781 48.2141 37.967 48.2357 37.9527C48.2868 37.9193 48.3722 37.8843 48.4923 37.8556C48.7302 37.7988 49.0659 37.7764 49.4403 37.8091Z" fill="white" stroke="black" stroke-width="0.377393"/>
<path d="M49.4064 39.5777C49.7821 39.5974 50.112 39.6663 50.3398 39.7557C50.4545 39.8008 50.5334 39.8473 50.5793 39.8876C50.5983 39.9043 50.6068 39.9171 50.6116 39.9245C50.6061 39.9313 50.5964 39.9431 50.5756 39.9578C50.5258 39.993 50.4424 40.0311 50.3236 40.0639C50.0877 40.129 49.7524 40.163 49.3768 40.1433C49.0013 40.1236 48.6721 40.0547 48.4444 39.9654C48.3295 39.9203 48.2498 39.8738 48.2039 39.8335C48.1844 39.8163 48.1752 39.8038 48.1706 39.7965C48.1759 39.7898 48.1864 39.7783 48.2076 39.7633C48.2574 39.728 48.3416 39.6901 48.4605 39.6572C48.6964 39.5922 49.031 39.558 49.4064 39.5777Z" fill="white" stroke="black" stroke-width="0.377393"/>
<path d="M49.3591 41.4179C49.7343 41.3917 50.0702 41.4198 50.3072 41.4808C50.4266 41.5116 50.5105 41.5482 50.561 41.5825C50.5819 41.5968 50.5919 41.6085 50.5975 41.6152C50.5929 41.6227 50.5847 41.6356 50.5659 41.6527C50.5207 41.6937 50.4426 41.7416 50.3287 41.7887C50.1025 41.8821 49.7738 41.9567 49.3986 41.9829C49.0236 42.0092 48.6884 41.9809 48.4514 41.92C48.3319 41.8892 48.2472 41.8527 48.1967 41.8183C48.1752 41.8037 48.1646 41.7924 48.1591 41.7857C48.1636 41.7784 48.1726 41.7657 48.1918 41.7482C48.237 41.7071 48.3159 41.6592 48.4299 41.6121C48.6561 41.5188 48.9841 41.4442 49.3591 41.4179Z" fill="white" stroke="black" stroke-width="0.377393"/>
<path d="M49.7833 43.3368C50.1466 43.2395 50.4817 43.203 50.726 43.2177C50.849 43.2251 50.9384 43.245 50.9945 43.2691C51.0178 43.2791 51.0298 43.2886 51.0366 43.2942C51.0335 43.3024 51.0279 43.3166 51.0127 43.337C50.9762 43.3859 50.9087 43.4478 50.8058 43.5158C50.6016 43.6506 50.2932 43.7866 49.9299 43.8839C49.5667 43.9812 49.2323 44.0174 48.9881 44.0028C48.865 43.9954 48.7748 43.9758 48.7186 43.9517C48.6948 43.9414 48.6822 43.9323 48.6756 43.9268C48.6786 43.9187 48.6849 43.9046 48.7004 43.8838C48.737 43.8348 48.8053 43.7727 48.9083 43.7047C49.1124 43.57 49.4202 43.4341 49.7833 43.3368Z" fill="white" stroke="black" stroke-width="0.377393"/>
<path d="M50.2782 45.1175C50.6317 44.9888 50.9623 44.9233 51.2069 44.9166C51.3301 44.9133 51.4209 44.9253 51.4789 44.9444C51.503 44.9523 51.5158 44.9608 51.5231 44.9657C51.5207 44.9742 51.5163 44.9889 51.503 45.0105C51.4708 45.0624 51.409 45.13 51.3125 45.2066C51.1208 45.3587 50.8254 45.521 50.4719 45.6497C50.1187 45.7783 49.7887 45.8435 49.5441 45.8502C49.4208 45.8536 49.3292 45.8419 49.2712 45.8228C49.2465 45.8146 49.2332 45.8067 49.2261 45.8018C49.2284 45.7934 49.2335 45.7788 49.2471 45.7567C49.2793 45.7047 49.3419 45.6369 49.4386 45.5602C49.6302 45.4082 49.925 45.246 50.2782 45.1175Z" fill="white" stroke="black" stroke-width="0.377393"/>
<rect x="4.54102" y="62.1333" width="87.6606" height="28.6658" transform="rotate(-32 4.54102 62.1333)" fill="#F2F2F2"/>
<path d="M87.0955 52.9478C86.6516 52.9478 86.0138 53.315 85.4314 54.4409C84.8737 55.5192 84.5008 57.0748 84.5007 58.8442C84.5007 60.6136 84.8738 62.1692 85.4314 63.2476C86.0138 64.3736 86.6516 64.7417 87.0955 64.7417C87.5394 64.7417 88.1771 64.3736 88.7595 63.2476C89.3172 62.1692 89.6902 60.6136 89.6902 58.8442C89.6901 57.0748 89.3173 55.5192 88.7595 54.4409C88.1771 53.315 87.5393 52.9478 87.0955 52.9478Z" fill="#F8F9FA" stroke="black" stroke-width="1.88696"/>
<path d="M87.0955 65.2129C86.6516 65.2129 86.0138 65.5801 85.4314 66.7061C84.8737 67.7843 84.5008 69.3399 84.5007 71.1094C84.5007 72.8788 84.8738 74.4343 85.4314 75.5127C86.0138 76.6388 86.6516 77.0068 87.0955 77.0068C87.5394 77.0068 88.1771 76.6388 88.7595 75.5127C89.3172 74.4343 89.6902 72.8788 89.6902 71.1094C89.6901 69.3399 89.3173 67.7843 88.7595 66.7061C88.1771 65.5801 87.5393 65.2129 87.0955 65.2129Z" fill="#F8F9FA" stroke="black" stroke-width="1.88696"/>
<mask id="path-24-inside-3_2391_37" fill="white">
<path d="M83.0852 61.9111H22.7024V67.572H83.0852V61.9111Z"/>
</mask>
<path d="M83.0852 61.9111H22.7024V67.572H83.0852V61.9111Z" fill="#F8F9FA"/>
<path d="M22.7024 61.9111H20.3437V60.0242H22.7024V61.9111ZM22.7024 67.572V69.459H20.3437V67.572H22.7024ZM83.0852 61.9111V63.7981H22.7024V61.9111V60.0242H83.0852V61.9111ZM22.7024 61.9111H25.0611V67.572H22.7024H20.3437V61.9111H22.7024ZM22.7024 67.572V65.6851H83.0852V67.572V69.459H22.7024V67.572Z" fill="black" mask="url(#path-24-inside-3_2391_37)"/>
<mask id="path-26-inside-4_2391_37" fill="white">
<path d="M82.8492 68.9874C84.1811 68.9874 85.5 68.8837 86.7306 68.6821C87.9611 68.4806 89.0792 68.1853 90.021 67.8129C90.9628 67.4406 91.7099 66.9985 92.2196 66.5121C92.7293 66.0256 92.9916 65.5041 92.9916 64.9776C92.9916 64.451 92.7293 63.9296 92.2196 63.4431C91.7099 62.9566 90.9628 62.5146 90.021 62.1422C89.0792 61.7699 87.9611 61.4745 86.7306 61.273C85.5 61.0715 84.1811 60.9678 82.8492 60.9678L82.8492 64.9776V68.9874Z"/>
</mask>
<path d="M82.8492 68.9874C84.1811 68.9874 85.5 68.8837 86.7306 68.6821C87.9611 68.4806 89.0792 68.1853 90.021 67.8129C90.9628 67.4406 91.7099 66.9985 92.2196 66.5121C92.7293 66.0256 92.9916 65.5041 92.9916 64.9776C92.9916 64.451 92.7293 63.9296 92.2196 63.4431C91.7099 62.9566 90.9628 62.5146 90.021 62.1422C89.0792 61.7699 87.9611 61.4745 86.7306 61.273C85.5 61.0715 84.1811 60.9678 82.8492 60.9678L82.8492 64.9776V68.9874Z" fill="#F8F9FA" stroke="black" stroke-width="2.83045" mask="url(#path-26-inside-4_2391_37)"/>
<path d="M88.7463 62.3823V67.0997" stroke="black" stroke-width="1.41522"/>
<path d="M66.5737 61.439V67.5718H71.2915V61.439H66.5737Z" fill="#F8F9FA" stroke="black" stroke-width="1.88696"/>
<path d="M67.6353 48.8203V59.9062H70.23V48.8203H67.6353Z" fill="#F8F9FA" stroke="black" stroke-width="1.17935"/>
<path d="M93.9353 35.9653V45.8719C81.8583 46.8858 75.4159 47.501 66.3385 48.9382C51.1585 50.985 44.1666 52.7121 32.8449 56.2502C27.4198 58.6089 25.297 61.6752 23.8818 65.2133C22.0892 69.6948 21.7589 70.1666 21.0513 71.5818H12.56" stroke="black" stroke-width="2.3587"/>
<path d="M25.2175 60.4097L18.4336 57.1009L14.918 64.3089L21.702 67.6176L25.2175 60.4097Z" fill="#F8F9FA"/>
<line x1="1.57604" y1="71.2458" x2="100.642" y2="6.61725" stroke="black" stroke-width="2.21853"/>
</svg>
